<svg width="33" height="33" viewBox="0 0 33 33" fill="none" xmlns="http://www.w3.org/2000/svg">
<g clip-path="url(#clip0_1_31)">
<path d="M16.5 33C25.6127 33 33 25.6127 33 16.5C33 7.3873 25.6127 0 16.5 0C7.3873 0 0 7.3873 0 16.5C0 25.6127 7.3873 33 16.5 33Z" fill="#4065D6"/>
<path d="M24.1096 21.2154C23.7232 21.2697 21.8452 21.2154 21.7475 21.2154C21.262 21.2203 20.794 21.0339 20.4449 20.6965C20.0476 20.3144 19.6893 19.8932 19.3094 19.4959C19.1941 19.3748 19.07 19.2623 18.9381 19.1594C18.6277 18.9228 18.3216 18.977 18.1761 19.3418C18.0622 19.7371 17.9837 20.1418 17.9416 20.551C17.9349 20.7234 17.8599 20.8861 17.7334 21.0033C17.6068 21.1206 17.4388 21.1828 17.2664 21.1763C17.0103 21.1893 16.7541 21.1958 16.5001 21.1893C15.576 21.1845 14.6662 20.9614 13.8449 20.538C12.9582 20.0425 12.1853 19.3665 11.5761 18.5537C10.6015 17.2667 9.7592 15.8847 9.06203 14.4287C9.02512 14.3549 8.29348 12.7982 8.27611 12.7266C8.23075 12.6246 8.22642 12.509 8.26402 12.4039C8.30161 12.2988 8.37825 12.2122 8.47802 12.1621C8.60828 12.1122 11.0203 12.1621 11.0594 12.1621C11.239 12.1604 11.4145 12.2161 11.5601 12.3212C11.7058 12.4263 11.8141 12.5751 11.8692 12.7461C12.3153 13.8834 12.9245 14.9497 13.6777 15.9115C13.7827 16.0411 13.9064 16.1545 14.0446 16.248C14.0802 16.2824 14.1244 16.3067 14.1725 16.3182C14.2206 16.3298 14.271 16.3284 14.3184 16.314C14.3657 16.2996 14.4084 16.2728 14.442 16.2364C14.4755 16.2 14.4987 16.1553 14.5092 16.1069C14.6046 15.793 14.6608 15.4685 14.6764 15.1408C14.6894 14.4895 14.6764 14.0553 14.6395 13.4039C14.6526 13.182 14.5777 12.9638 14.4309 12.7968C14.2842 12.6297 14.0775 12.5273 13.8557 12.5116C13.6647 12.4791 13.6386 12.3228 13.771 12.1664C14.0251 11.843 14.3768 11.7908 14.7589 11.7713C15.3364 11.7387 15.916 11.7713 16.4957 11.7713H16.6216C16.8761 11.7707 17.13 11.7961 17.3793 11.8473C17.5251 11.8772 17.6573 11.9533 17.7563 12.0644C17.8553 12.1755 17.9157 12.3156 17.9286 12.4639C17.9579 12.6279 17.971 12.7944 17.9677 12.961C17.9525 13.671 17.9178 14.3809 17.9091 15.093C17.9039 15.3743 17.9294 15.6553 17.9851 15.931C18.0697 16.3088 18.3281 16.4043 18.593 16.1286C18.923 15.7743 19.2257 15.3955 19.4983 14.9953C19.9885 14.2667 20.3921 13.4835 20.701 12.6614C20.8682 12.2403 20.9963 12.1469 21.4501 12.1469H24.0097C24.1625 12.1444 24.3147 12.1648 24.4613 12.2077C24.5131 12.2215 24.5614 12.2458 24.6034 12.279C24.6453 12.3123 24.68 12.3538 24.7053 12.4011C24.7305 12.4483 24.7458 12.5002 24.7501 12.5536C24.7545 12.607 24.7478 12.6607 24.7305 12.7114C24.5809 13.256 24.324 13.7653 23.975 14.2094C23.4539 14.9454 22.9068 15.664 22.3728 16.3805C22.3052 16.4742 22.2435 16.5721 22.1882 16.6735C21.9885 17.0339 22.0037 17.238 22.2924 17.542C22.757 18.0196 23.2542 18.469 23.7014 18.9597C24.0313 19.3172 24.3291 19.7029 24.5916 20.1125C24.9216 20.6422 24.7197 21.1285 24.1096 21.2154Z" fill="white"/>
</g>
<defs>
<clipPath id="clip0_1_31">
<rect width="33" height="33" fill="white"/>
</clipPath>
</defs>
</svg>
